<mxfile host="app.diagrams.net" modified="2022-08-19T16:51:59.244Z" agent="5.0 (Macintosh; Intel Mac OS X 10_15_7) AppleWebKit/537.36 (KHTML, like Gecko) Chrome/104.0.0.0 Safari/537.36" etag="tukmIqYCHDPw8uVy49a0" version="20.2.4" type="github">
  <diagram id="dywHlymTwKwzWPGsu9RK" name="Page-1">
    <mxGraphModel dx="946" dy="556" grid="1" gridSize="10" guides="1" tooltips="1" connect="1" arrows="1" fold="1" page="1" pageScale="1" pageWidth="827" pageHeight="1169" math="0" shadow="0">
      <root>
        <mxCell id="0" />
        <mxCell id="1" parent="0" />
        <mxCell id="pqvb9WANlRPgFnTCZOcP-5" value="" style="edgeStyle=orthogonalEdgeStyle;rounded=0;orthogonalLoop=1;jettySize=auto;html=1;" parent="1" source="pqvb9WANlRPgFnTCZOcP-3" target="pqvb9WANlRPgFnTCZOcP-4" edge="1">
          <mxGeometry relative="1" as="geometry" />
        </mxCell>
        <mxCell id="pqvb9WANlRPgFnTCZOcP-3" value="" style="ellipse;whiteSpace=wrap;html=1;aspect=fixed;" parent="1" vertex="1">
          <mxGeometry x="360" y="30" width="46" height="46" as="geometry" />
        </mxCell>
        <mxCell id="pqvb9WANlRPgFnTCZOcP-7" value="" style="edgeStyle=orthogonalEdgeStyle;rounded=0;orthogonalLoop=1;jettySize=auto;html=1;" parent="1" source="pqvb9WANlRPgFnTCZOcP-4" target="pqvb9WANlRPgFnTCZOcP-6" edge="1">
          <mxGeometry relative="1" as="geometry" />
        </mxCell>
        <mxCell id="pqvb9WANlRPgFnTCZOcP-4" value="numbers = [1,8,3,8,2,6,8,8]&lt;br&gt;index = 0&lt;br&gt;maximum = numbers[index]&lt;br&gt;count_maximal = 0" style="whiteSpace=wrap;html=1;" parent="1" vertex="1">
          <mxGeometry x="264.5" y="100" width="237" height="60" as="geometry" />
        </mxCell>
        <mxCell id="pqvb9WANlRPgFnTCZOcP-9" value="" style="edgeStyle=orthogonalEdgeStyle;rounded=0;orthogonalLoop=1;jettySize=auto;html=1;" parent="1" source="pqvb9WANlRPgFnTCZOcP-6" target="pqvb9WANlRPgFnTCZOcP-8" edge="1">
          <mxGeometry relative="1" as="geometry">
            <Array as="points">
              <mxPoint x="610" y="260" />
            </Array>
          </mxGeometry>
        </mxCell>
        <mxCell id="NgHgW24lM7EycrwPGnW6-27" value="" style="edgeStyle=orthogonalEdgeStyle;rounded=0;orthogonalLoop=1;jettySize=auto;html=1;" edge="1" parent="1" source="pqvb9WANlRPgFnTCZOcP-6" target="NgHgW24lM7EycrwPGnW6-26">
          <mxGeometry relative="1" as="geometry" />
        </mxCell>
        <mxCell id="pqvb9WANlRPgFnTCZOcP-6" value="index &amp;lt; numbers.length" style="rhombus;whiteSpace=wrap;html=1;" parent="1" vertex="1">
          <mxGeometry x="289.5" y="200" width="187" height="120" as="geometry" />
        </mxCell>
        <mxCell id="NgHgW24lM7EycrwPGnW6-4" value="" style="edgeStyle=orthogonalEdgeStyle;rounded=0;orthogonalLoop=1;jettySize=auto;html=1;" edge="1" parent="1" source="pqvb9WANlRPgFnTCZOcP-8" target="NgHgW24lM7EycrwPGnW6-3">
          <mxGeometry relative="1" as="geometry">
            <Array as="points">
              <mxPoint x="750" y="371" />
            </Array>
          </mxGeometry>
        </mxCell>
        <mxCell id="NgHgW24lM7EycrwPGnW6-11" value="" style="edgeStyle=orthogonalEdgeStyle;rounded=0;orthogonalLoop=1;jettySize=auto;html=1;" edge="1" parent="1" source="pqvb9WANlRPgFnTCZOcP-8" target="NgHgW24lM7EycrwPGnW6-10">
          <mxGeometry relative="1" as="geometry">
            <Array as="points">
              <mxPoint x="380" y="371" />
            </Array>
          </mxGeometry>
        </mxCell>
        <mxCell id="pqvb9WANlRPgFnTCZOcP-8" value="numbers[index] &amp;gt; maximum" style="rhombus;whiteSpace=wrap;html=1;" parent="1" vertex="1">
          <mxGeometry x="520" y="311" width="187" height="120" as="geometry" />
        </mxCell>
        <mxCell id="NgHgW24lM7EycrwPGnW6-18" style="edgeStyle=orthogonalEdgeStyle;rounded=0;orthogonalLoop=1;jettySize=auto;html=1;exitX=0.649;exitY=1.008;exitDx=0;exitDy=0;exitPerimeter=0;" edge="1" parent="1" source="NgHgW24lM7EycrwPGnW6-3">
          <mxGeometry relative="1" as="geometry">
            <mxPoint x="510" y="680" as="targetPoint" />
            <Array as="points">
              <mxPoint x="740" y="651" />
              <mxPoint x="740" y="680" />
            </Array>
          </mxGeometry>
        </mxCell>
        <mxCell id="NgHgW24lM7EycrwPGnW6-3" value="maximum = numbers[index]&lt;br&gt;count_maximal = 1" style="whiteSpace=wrap;html=1;" vertex="1" parent="1">
          <mxGeometry x="610" y="590" width="203.5" height="60" as="geometry" />
        </mxCell>
        <mxCell id="NgHgW24lM7EycrwPGnW6-14" value="" style="edgeStyle=orthogonalEdgeStyle;rounded=0;orthogonalLoop=1;jettySize=auto;html=1;exitX=1;exitY=0.5;exitDx=0;exitDy=0;" edge="1" parent="1" source="NgHgW24lM7EycrwPGnW6-10" target="NgHgW24lM7EycrwPGnW6-13">
          <mxGeometry relative="1" as="geometry" />
        </mxCell>
        <mxCell id="NgHgW24lM7EycrwPGnW6-16" value="" style="edgeStyle=orthogonalEdgeStyle;rounded=0;orthogonalLoop=1;jettySize=auto;html=1;" edge="1" parent="1" source="NgHgW24lM7EycrwPGnW6-10" target="NgHgW24lM7EycrwPGnW6-15">
          <mxGeometry relative="1" as="geometry" />
        </mxCell>
        <mxCell id="NgHgW24lM7EycrwPGnW6-10" value="numbers[index] == maximum" style="rhombus;whiteSpace=wrap;html=1;" vertex="1" parent="1">
          <mxGeometry x="289.5" y="420" width="187" height="120" as="geometry" />
        </mxCell>
        <mxCell id="NgHgW24lM7EycrwPGnW6-17" style="edgeStyle=orthogonalEdgeStyle;rounded=0;orthogonalLoop=1;jettySize=auto;html=1;entryX=0.5;entryY=1;entryDx=0;entryDy=0;" edge="1" parent="1" source="NgHgW24lM7EycrwPGnW6-13" target="NgHgW24lM7EycrwPGnW6-15">
          <mxGeometry relative="1" as="geometry">
            <Array as="points">
              <mxPoint x="510" y="680" />
              <mxPoint x="116" y="680" />
            </Array>
          </mxGeometry>
        </mxCell>
        <mxCell id="NgHgW24lM7EycrwPGnW6-13" value="count_maximal = count_maximal +1" style="whiteSpace=wrap;html=1;" vertex="1" parent="1">
          <mxGeometry x="450" y="590" width="120" height="60" as="geometry" />
        </mxCell>
        <mxCell id="NgHgW24lM7EycrwPGnW6-19" style="edgeStyle=orthogonalEdgeStyle;rounded=0;orthogonalLoop=1;jettySize=auto;html=1;" edge="1" parent="1" source="NgHgW24lM7EycrwPGnW6-15">
          <mxGeometry relative="1" as="geometry">
            <mxPoint x="380" y="170" as="targetPoint" />
            <Array as="points">
              <mxPoint x="116" y="170" />
            </Array>
          </mxGeometry>
        </mxCell>
        <mxCell id="NgHgW24lM7EycrwPGnW6-15" value="index = index +1" style="whiteSpace=wrap;html=1;" vertex="1" parent="1">
          <mxGeometry x="56" y="450" width="120" height="60" as="geometry" />
        </mxCell>
        <mxCell id="NgHgW24lM7EycrwPGnW6-20" value="ДА" style="text;html=1;strokeColor=none;fillColor=none;align=center;verticalAlign=middle;whiteSpace=wrap;rounded=0;" vertex="1" parent="1">
          <mxGeometry x="470" y="230" width="60" height="30" as="geometry" />
        </mxCell>
        <mxCell id="NgHgW24lM7EycrwPGnW6-21" value="ДА" style="text;html=1;strokeColor=none;fillColor=none;align=center;verticalAlign=middle;whiteSpace=wrap;rounded=0;" vertex="1" parent="1">
          <mxGeometry x="700" y="340" width="60" height="30" as="geometry" />
        </mxCell>
        <mxCell id="NgHgW24lM7EycrwPGnW6-23" value="ДА" style="text;html=1;strokeColor=none;fillColor=none;align=center;verticalAlign=middle;whiteSpace=wrap;rounded=0;" vertex="1" parent="1">
          <mxGeometry x="470" y="450" width="60" height="30" as="geometry" />
        </mxCell>
        <mxCell id="NgHgW24lM7EycrwPGnW6-29" value="" style="edgeStyle=orthogonalEdgeStyle;rounded=0;orthogonalLoop=1;jettySize=auto;html=1;" edge="1" parent="1" source="NgHgW24lM7EycrwPGnW6-26" target="NgHgW24lM7EycrwPGnW6-28">
          <mxGeometry relative="1" as="geometry" />
        </mxCell>
        <mxCell id="NgHgW24lM7EycrwPGnW6-26" value="Print(count_maximal)" style="whiteSpace=wrap;html=1;" vertex="1" parent="1">
          <mxGeometry x="144.5" y="230" width="120" height="60" as="geometry" />
        </mxCell>
        <mxCell id="NgHgW24lM7EycrwPGnW6-28" value="" style="ellipse;whiteSpace=wrap;html=1;fillColor=#000000;" vertex="1" parent="1">
          <mxGeometry x="171.75" y="350" width="65.5" height="60" as="geometry" />
        </mxCell>
        <mxCell id="NgHgW24lM7EycrwPGnW6-30" value="НЕТ" style="text;html=1;strokeColor=none;fillColor=none;align=center;verticalAlign=middle;whiteSpace=wrap;rounded=0;" vertex="1" parent="1">
          <mxGeometry x="264.5" y="230" width="60" height="30" as="geometry" />
        </mxCell>
        <mxCell id="NgHgW24lM7EycrwPGnW6-31" value="НЕТ" style="text;html=1;strokeColor=none;fillColor=none;align=center;verticalAlign=middle;whiteSpace=wrap;rounded=0;" vertex="1" parent="1">
          <mxGeometry x="237.25" y="450" width="60" height="30" as="geometry" />
        </mxCell>
        <mxCell id="NgHgW24lM7EycrwPGnW6-32" value="НЕТ" style="text;html=1;strokeColor=none;fillColor=none;align=center;verticalAlign=middle;whiteSpace=wrap;rounded=0;" vertex="1" parent="1">
          <mxGeometry x="460" y="340" width="60" height="30" as="geometry" />
        </mxCell>
      </root>
    </mxGraphModel>
  </diagram>
</mxfile>
